<svg width="191" height="171" viewBox="0 0 191 171" fill="none" xmlns="http://www.w3.org/2000/svg">
<path d="M142.472 55.9819C144.4 55.819 147.366 54.6926 148.608 54.1497L113 152.33L148.608 103.566L190.688 170.999L160.882 40.3069C158.602 41.6098 147.659 43.9712 142.472 44.9891V55.9819Z" fill="#4F2ADA"/>
<path d="M130.623 152.678H46.4632L58.7366 54.1498C59.7886 54.964 64.2888 55.9819 66.4074 56.389V63.514H72.1057V46.4141C69.6949 26.8713 79.7766 5.69998 107.611 5.69998C113.528 5.69998 144.431 9.36425 141.143 46.4141C127.336 50.0784 96.6524 52.3176 74.7357 47.8391V57.4069C107.611 62.2926 126.678 60.2569 141.143 57.4069V63.514H147.061V35.8284C145.307 16.0821 129.966 0 107.611 0C75.7001 1.62856 66.8457 24.5642 66.4074 35.8284V46.4141C62.1994 46.4141 51.358 42.3427 46.4632 40.307L21.6974 167.335L130.623 152.678Z" fill="#4F2ADA"/>
<ellipse cx="64.4757" cy="67.5854" rx="5.26" ry="4.88569" fill="#4F2ADA"/>
<ellipse cx="133.554" cy="67.5854" rx="5.26" ry="4.88569" fill="#4F2ADA"/>
<path d="M16.4375 102.803L0 88.7568L17.5333 71.0461L27.615 73.8961L24.985 76.1354C20.6017 75.7283 19.9442 80.1469 21.04 81.2247C24.7658 84.8889 28.7108 81.2247 27.615 78.7818L30.4642 76.1354L33.7517 85.4996L16.4375 102.803Z" fill="#4F2ADA"/>
<ellipse cx="23.7257" cy="79.4607" rx="3.72583" ry="3.4607" fill="#4F2ADA"/>
<ellipse cx="23.8891" cy="78.9854" rx="1.75333" ry="1.62856" fill="white"/>
<path d="M117.514 115.017C112.035 120.514 87.4883 133.949 64.0375 114.407C59.1281 110.335 54.8094 115.017 58.3391 118.478C78.0641 137.817 111.597 133.135 123.212 119.496C126.506 115.628 120.558 111.964 117.514 115.017Z" fill="#4F2ADA"/>
<ellipse cx="111.131" cy="90.5889" rx="8.76667" ry="11.1964" fill="#4F2ADA"/>
<ellipse cx="6.5658" cy="8.7677" rx="6.5658" ry="8.7677" transform="matrix(0.991152 0.132729 -0.153382 0.988167 74.1787 81.8354)" fill="#4F2ADA"/>
<ellipse cx="2.18654" cy="3.06182" rx="2.18654" ry="3.06182" transform="matrix(0.985134 0.171791 -0.19812 0.980178 74.2675 87.2469)" fill="white"/>
<ellipse cx="107.405" cy="90.1818" rx="3.2875" ry="5.08926" fill="white"/>
<path d="M20.085 78.7168L40.7752 61.3166L40.6118 63.1425L21.3229 79.6294L20.085 78.7168Z" fill="#4F2ADA"/>
</svg>
