<svg width="50" height="51" viewBox="0 0 50 51" fill="none" xmlns="http://www.w3.org/2000/svg">
<path d="M50 25.5C50 11.4167 38.8071 0 25 0C11.1929 0 0 11.4167 0 25.5C0 38.2278 9.14214 48.7772 21.0938 50.6901V32.8711H14.7461V25.5H21.0938V19.882C21.0938 13.4911 24.8261 9.96094 30.5366 9.96094C33.2719 9.96094 36.1328 10.459 36.1328 10.459V16.7344H32.9803C29.8748 16.7344 28.9062 18.7 28.9062 20.7166V25.5H35.8398L34.7314 32.8711H28.9062V50.6901C40.8579 48.7772 50 38.2278 50 25.5Z" fill="#1877F2"/>
<path d="M34.7314 32.8711L35.8398 25.5H28.9062V20.7166C28.9062 18.7 29.8748 16.7344 32.9803 16.7344H36.1328V10.459C36.1328 10.459 33.2719 9.96094 30.5366 9.96094C24.8261 9.96094 21.0938 13.4911 21.0938 19.882V25.5H14.7461V32.8711H21.0938V50.6901C23.6822 51.1033 26.3178 51.1033 28.9062 50.6901V32.8711H34.7314Z" fill="white"/>
</svg>
