<svg width="49" height="48" viewBox="0 0 49 48" fill="none" xmlns="http://www.w3.org/2000/svg">
<path d="M49 24.5333C49 22.56 48.8332 21.12 48.4722 19.6267H25V28.5332H38.7777C38.5 30.7466 37 34.08 33.6666 36.3199L33.6199 36.6181L41.0414 42.1374L41.5555 42.1867C46.2777 38 49 31.8399 49 24.5333Z" fill="#4285F4"/>
<path d="M25 48C31.7499 48 37.4165 45.8666 41.5555 42.1867L33.6666 36.3199C31.5555 37.7332 28.7221 38.7199 25 38.7199C18.3889 38.7199 12.7778 34.5333 10.7776 28.7467L10.4845 28.7706L2.76748 34.5039L2.66656 34.7732C6.77763 42.6132 15.2221 48 25 48Z" fill="#34A853"/>
<path d="M10.7777 28.7467C10.2499 27.2534 9.94447 25.6533 9.94447 24C9.94447 22.3466 10.2499 20.7466 10.7499 19.2533L10.7359 18.9353L2.92225 13.1098L2.6666 13.2266C0.972233 16.4799 0 20.1333 0 24C0 27.8667 0.972233 31.5199 2.6666 34.7733L10.7777 28.7467Z" fill="#FBBC05"/>
<path d="M25 9.27994C29.6943 9.27994 32.8609 11.2266 34.6666 12.8534L41.7221 6.24C37.3889 2.37334 31.7499 0 25 0C15.2221 0 6.77763 5.38663 2.66656 13.2266L10.7499 19.2533C12.7778 13.4667 18.3889 9.27994 25 9.27994Z" fill="#EB4335"/>
</svg>
