<svg width="55" height="50" viewBox="0 0 55 50" fill="none" xmlns="http://www.w3.org/2000/svg">
<path d="M43.2701 0H11.7299C5.25165 0 0 4.77423 0 10.6635V39.3365C0 45.2258 5.25165 50 11.7299 50H43.2701C49.7483 50 55 45.2258 55 39.3365V10.6635C55 4.77423 49.7483 0 43.2701 0Z" fill="#0A93E2"/>
<path fill-rule="evenodd" clip-rule="evenodd" d="M44.2288 17.4162C43.023 17.9015 41.7439 18.2199 40.4343 18.3609C41.8039 17.6139 42.8512 16.4348 43.3346 15.0359C42.0391 15.7339 40.6225 16.2268 39.1453 16.4934C38.2402 15.61 37.0632 14.9952 35.768 14.729C34.4727 14.4629 33.1193 14.5578 31.8843 15.0014C30.6492 15.4449 29.5899 16.2166 28.8445 17.2157C28.099 18.2147 27.7021 19.3948 27.7055 20.602C27.7039 21.0629 27.7606 21.5225 27.8747 21.9716C25.2468 21.8518 22.6761 21.2311 20.3292 20.1498C17.9823 19.0685 15.9116 17.5508 14.2515 15.695C13.4024 17.0179 13.1412 18.5858 13.5216 20.0779C13.902 21.57 14.8951 22.8736 16.2978 23.722C15.2469 23.6921 14.2191 23.4334 13.3009 22.9676V23.0409C13.3009 25.9558 15.5808 28.3873 18.6019 28.9366C17.63 29.1777 16.6102 29.2128 15.6211 29.0391C16.0436 30.2324 16.8653 31.2761 17.9716 32.0245C19.0778 32.7729 20.4135 33.1886 21.7922 33.2137C20.4209 34.1936 18.8505 34.9179 17.1709 35.3452C15.4912 35.7725 13.7354 35.8944 12.0038 35.7038C14.9283 37.4103 18.4005 38.399 22.1386 38.399C34.3035 38.399 40.9499 29.2442 40.9499 21.2978C40.9499 21.0415 40.9499 20.7851 40.9338 20.5215C42.2228 19.6792 43.3507 18.6173 44.2369 17.4162H44.2288Z" fill="white"/>
</svg>
